# xmcd
#
# Track frame offsets:
#	150
#	9503
#	21505
#	35403
#	51748
#	65978
#	79183
#	90193
#	104580
#	116830
#	125838
#	136458
#	150733
#	167203
#	179360
#	192790
#
# Disc length: 2747 seconds
#
# Revision: 0
# Processed by: cddbd v1.4PL0 Copyright (c) Steve Scherf et al.
# Submitted via: audiograbber 1.80
#
DISCID=e90ab910
DTITLE=Dionne Warwick            FJGG - Dionne Warwick In Valley Of The Dolls
DYEAR=1900
DGENRE=
TTITLE0=As Long As There's An Apple Tree
TTITLE1=Up, Up And Away
TTITLE2=You're My World (Il Mio Mondo)
TTITLE3=(Theme From) Valley Of The Dolls
TTITLE4=Silent Voices (La Voche Del Silenzio)
TTITLE5=Only Love Can Break A Heart
TTITLE6=Macarthur Park
TTITLE7=Games People Play
TTITLE8=Baubles, Bangles And Beads
TTITLE9=Try To Remember (Live)
TTITLE10=For All We Know
TTITLE11=For The Rest Of My Life (Delicato All'Amore)
TTITLE12=Let Me Be Lonely
TTITLE13=Where Would I Go
TTITLE14=Walking Backwards Down The Road
TTITLE15=Do You Know The Way To San Jose-
EXTD=
EXTT0=
EXTT1=
EXTT2=
EXTT3=
EXTT4=
EXTT5=
EXTT6=
EXTT7=
EXTT8=
EXTT9=
EXTT10=
EXTT11=
EXTT12=
EXTT13=
EXTT14=
EXTT15=
PLAYORDER=
